<svg xmlns="http://www.w3.org/2000/svg" width="600" height="600"><g transform="translate(300,300)"><g><text text-anchor="end" transform="translate(-197.48372437516508,-136.3824717730025)translate(0,0)rotate(214.62900000000002)rotate(180)" dy=".35em" class="elm-chord-diagram-label"></text><g transform="translate(0,0)"><path d="M-17.43114854953165,-199.23893961834912 A200,200 0 0 0 -192.49862546166597,54.26121262346841 L-211.74848800783255,59.68733388581526 A220,220 0 0 1 -19.174263404484815,-219.162833580184 Z" stroke="rgb(0, 0, 0)" stroke-width="1" fill="rgb(0, 0, 0)" fill-opacity="1"></path></g><path d="M-192.49862546166597,54.26121262346841 A200,200 0 0 1 -181.30136811262346,-84.4382254698131 Q0,0 -192.49862546166597,54.26121262346841 Z" stroke="rgb(0, 0, 0)" stroke-width="1" fill="rgb(0, 0, 0)" fill-opacity="0.67"></path></g><g><text text-anchor="end" transform="translate(-137.20161720079517,196.9155053252193)translate(0,0)rotate(124.867)rotate(180)" dy=".35em" class="elm-chord-diagram-label"></text><g transform="translate(0,0)"><path d="M-187.03693378627332,70.83209300754288 A200,200 0 0 0 -1.6615343348392997,199.9930981400462 L-1.8276877683232295,219.99240795405083 A220,220 0 0 1 -205.74062716490067,77.91530230829716 Z" stroke="rgb(255, 221, 137)" stroke-width="1" fill="rgb(255, 221, 137)" fill-opacity="1"></path></g><path d="M-131.92846456195022,150.31593474521006 A200,200 0 0 1 -149.273287052266,133.10704629211708 Q0,0 182.31511428092168,-82.22651096048321 A200,200 0 0 1 172.11819069804312,101.85935612810468 Q0,0 -131.92846456195022,150.31593474521006 Z" stroke="rgb(255, 221, 137)" stroke-width="1" fill="rgb(255, 221, 137)" fill-opacity="0.67"></path><path d="M-24.75285559929376,198.4623292710244 A200,200 0 0 1 -131.92846456195022,150.31593474521006 Q0,0 -24.75285559929376,198.4623292710244 Z" stroke="rgb(255, 221, 137)" stroke-width="1" fill="rgb(255, 221, 137)" fill-opacity="0.67"></path><path d="M-1.6615343348392997,199.9930981400462 A200,200 0 0 1 -24.75285559929376,198.4623292710244 Q0,0 -181.30136811262346,-84.4382254698131 A200,200 0 0 1 -141.58318190925468,-141.25934517918063 Q0,0 -1.6615343348392997,199.9930981400462 Z" stroke="rgb(255, 221, 137)" stroke-width="1" fill="rgb(255, 221, 137)" fill-opacity="0.67"></path></g><g><text text-anchor="start" transform="translate(229.53395095175262,70.10110812589504)translate(0,0)rotate(16.983000000000008)rotate(0)" dy=".35em" class="elm-chord-diagram-label"></text><g transform="translate(0,0)"><path d="M15.775335317736694,199.37687628110982 A200,200 0 0 0 124.47560725319451,-156.54335884651408 L136.923167978514,-172.19769473116546 A220,220 0 0 1 17.352868849510365,219.3145639092208 Z" stroke="rgb(149, 114, 68)" stroke-width="1" fill="rgb(149, 114, 68)" fill-opacity="1"></path></g><path d="M172.11819069804312,101.85935612810468 A200,200 0 0 1 105.61949861536202,169.8367495927767 Q0,0 172.11819069804312,101.85935612810468 Z" stroke="rgb(149, 114, 68)" stroke-width="1" fill="rgb(149, 114, 68)" fill-opacity="0.67"></path><path d="M124.47560725319453,-156.54335884651405 A200,200 0 0 1 182.31511428092168,-82.22651096048321 Q0,0 -141.58318190925468,-141.25934517918063 A200,200 0 0 1 -50.92444038249371,-193.40812126622254 Q0,0 124.47560725319453,-156.54335884651405 Z" stroke="rgb(149, 114, 68)" stroke-width="1" fill="rgb(149, 114, 68)" fill-opacity="0.67"></path></g><g><text text-anchor="start" transform="translate(69.14704876115549,-229.82316168659415)translate(0,0)rotate(-73.25500000000001)rotate(0)" dy=".35em" class="elm-chord-diagram-label"></text><g transform="translate(0,0)"><path d="M110.35828727490168,-166.7964281084888 A200,200 0 0 0 1.2246467991473532e-14,-200 L1.3471114790620885e-14,-220 A220,220 0 0 1 121.39411600239185,-183.47607091933767 Z" stroke="rgb(242, 98, 35)" stroke-width="1" fill="rgb(242, 98, 35)" fill-opacity="1"></path></g><path d="M34.750948620869906,-196.95779134106286 A200,200 0 0 1 110.35828727490168,-166.7964281084888 Q0,0 34.750948620869906,-196.95779134106286 Z" stroke="rgb(242, 98, 35)" stroke-width="1" fill="rgb(242, 98, 35)" fill-opacity="0.67"></path><path d="M23.716147541512306,-198.58888273463148 A200,200 0 0 1 34.750948620869906,-196.95779134106286 Q0,0 105.61949861536202,169.8367495927767 A200,200 0 0 1 15.775335317736694,199.37687628110982 Q0,0 23.716147541512306,-198.58888273463148 Z" stroke="rgb(242, 98, 35)" stroke-width="1" fill="rgb(242, 98, 35)" fill-opacity="0.67"></path><path d="M12.015286704539184,-199.638755970397 A200,200 0 0 1 23.716147541512306,-198.58888273463148 Q0,0 -149.273287052266,133.10704629211708 A200,200 0 0 1 -187.03693378627332,70.83209300754288 Q0,0 12.015286704539184,-199.638755970397 Z" stroke="rgb(242, 98, 35)" stroke-width="1" fill="rgb(242, 98, 35)" fill-opacity="0.67"></path><path d="M1.2246467991473532e-14,-200 A200,200 0 0 1 12.015286704539184,-199.638755970397 Q0,0 -50.92444038249371,-193.40812126622254 A200,200 0 0 1 -17.43114854953165,-199.23893961834912 Q0,0 1.2246467991473532e-14,-200 Z" stroke="rgb(242, 98, 35)" stroke-width="1" fill="rgb(242, 98, 35)" fill-opacity="0.67"></path></g></g></svg>
