<svg xmlns="http://www.w3.org/2000/svg" width="800" height="800"><g transform="translate(400,400)"><g><text text-anchor="end" transform="translate(-173.3945722752712,-165.93469289294435)translate(-100,0)rotate(223.7406015037593)rotate(180)" dy=".35em" class="elm-chord-diagram-label">A node</text><g transform="translate(-100,0)"><path d="M-94.55409759836574,-176.2371204580883 A200,200 0 0 0 -180.22223267919725,-86.71762709002871 L-198.244455947117,-95.38938979903159 A220,220 0 0 1 -104.00950735820231,-193.86083250389714 Z" stroke="rgb(196, 196, 196)" stroke-width="0" fill="rgb(0, 161, 222)" fill-opacity="1"></path></g><path d="M-258.1901213028299,-122.37600059732286 A200,200 0 0 1 -244.49547689605933,-138.27891074412028 Q0,0 286.198711152196,-73.00712270224793 A200,200 0 0 1 299.655243294854,-11.73813549387897 Q0,0 -258.1901213028299,-122.37600059732286 Z" stroke="rgb(196, 196, 196)" stroke-width="0" fill="rgb(196, 196, 196)" fill-opacity="0.67"></path></g><g><text text-anchor="end" transform="translate(-239.58629195382477,14.085762592655165)translate(-100,0)rotate(176.63533834586457)rotate(180)" dy=".35em" class="elm-chord-diagram-label">B node</text><g transform="translate(-100,0)"><path d="M-187.09437187161913,-70.68023778938704 A200,200 0 0 0 -177.52320232663024,92.11684230203674 L-195.27552255929325,101.32852653224042 A220,220 0 0 1 -205.80380905878104,-77.74826156832574 Z" stroke="rgb(196, 196, 196)" stroke-width="0" fill="rgb(0, 161, 222)" fill-opacity="1"></path></g><path d="M-286.19871115219587,73.00712270224828 A200,200 0 0 1 -299.655243294854,11.738135493879303 Q0,0 299.655243294854,-11.73813549387897 A200,200 0 0 1 287.09437187161905,70.68023778938735 Q0,0 -286.19871115219587,73.00712270224828 Z" stroke="rgb(196, 196, 196)" stroke-width="0" fill="rgb(196, 196, 196)" fill-opacity="0.67"></path><path d="M-277.5232023266302,92.11684230203674 A200,200 0 0 1 -286.19871115219587,73.00712270224828 Q0,0 258.19012130282977,122.37600059732301 A200,200 0 0 1 212.5013188726292,165.35855965724605 Q0,0 -277.5232023266302,92.11684230203674 Z" stroke="rgb(196, 196, 196)" stroke-width="0" fill="rgb(196, 196, 196)" fill-opacity="0.67"></path></g><g><text text-anchor="end" transform="translate(-162.25771642398416,176.84013532248252)translate(-100,0)rotate(132.53759398496234)rotate(180)" dy=".35em" class="elm-chord-diagram-label">C node</text><g transform="translate(-100,0)"><path d="M-168.81916113565435,107.23847645996267 A200,200 0 0 0 -92.34972264700659,177.40216663564442 L-101.58469491170726,195.1423832992089 A220,220 0 0 1 -185.7010772492198,117.96232410595894 Z" stroke="rgb(196, 196, 196)" stroke-width="0" fill="rgb(0, 161, 222)" fill-opacity="1"></path></g><path d="M-256.6522510185938,124.33853887997668 A200,200 0 0 1 -268.8191611356543,107.23847645996267 Q0,0 242.76042010779153,-140.06949150563398 A200,200 0 0 1 279.1271788363502,-88.95759552803918 Q0,0 -256.6522510185938,124.33853887997668 Z" stroke="rgb(196, 196, 196)" stroke-width="0" fill="rgb(196, 196, 196)" fill-opacity="0.67"></path><path d="M-242.76042010779136,140.06949150563415 A200,200 0 0 1 -256.6522510185938,124.33853887997668 Q0,0 287.09437187161905,70.68023778938735 A200,200 0 0 1 278.65776497468164,89.89662404257129 Q0,0 -242.76042010779136,140.06949150563415 Z" stroke="rgb(196, 196, 196)" stroke-width="0" fill="rgb(196, 196, 196)" fill-opacity="0.67"></path></g><g><text text-anchor="start" transform="translate(1.4959868140882933,239.99533750356917)translate(100,0)rotate(89.64285714285708)rotate(0)" dy=".35em" class="elm-chord-diagram-label"></text><g transform="translate(100,0)"><path d="M-76.53668647301778,184.77590650225744 A200,200 0 0 0 78.83421357710805,183.80741761332408 L86.71763493481885,202.18815937465646 A220,220 0 0 1 -84.19035512031955,203.2534971524832 Z" stroke="rgb(196, 196, 196)" stroke-width="0" fill="rgb(0, 161, 222)" fill-opacity="0"></path></g><path d="M178.83421357710805,183.80741761332408 A200,200 0 0 1 23.46331352698222,184.77590650225744 Q0,0 -178.83421357710785,-183.80741761332416 A200,200 0 0 1 -23.463313526982034,-184.77590650225736 Q0,0 178.83421357710805,183.80741761332408 Z" stroke="rgb(196, 196, 196)" stroke-width="0" fill="rgb(204, 0, 0)" fill-opacity="0"></path></g><g><text text-anchor="start" transform="translate(164.44965253942433,174.8036377758272)translate(100,0)rotate(46.74812030075184)rotate(0)" dy=".35em" class="elm-chord-diagram-label">X node</text><g transform="translate(100,0)"><path d="M94.55409759836556,176.23712045808838 A200,200 0 0 0 170.14291120176176,105.12559045156138 L187.15720232193792,115.63814949671752 A220,220 0 0 1 104.00950735820211,193.86083250389723 Z" stroke="rgb(196, 196, 196)" stroke-width="0" fill="rgb(0, 161, 222)" fill-opacity="1"></path></g><path d="M212.5013188726292,165.35855965724605 A200,200 0 0 1 194.55409759836556,176.23712045808838 Q0,0 -192.3497226470066,177.40216663564442 A200,200 0 0 1 -242.76042010779136,140.06949150563415 Q0,0 212.5013188726292,165.35855965724605 Z" stroke="rgb(196, 196, 196)" stroke-width="0" fill="rgb(196, 196, 196)" fill-opacity="0.67"></path><path d="M270.14291120176176,105.12559045156138 A200,200 0 0 1 258.19012130282977,122.37600059732301 Q0,0 -280.22223267919725,-86.71762709002871 A200,200 0 0 1 -258.1901213028299,-122.37600059732286 Q0,0 270.14291120176176,105.12559045156138 Z" stroke="rgb(196, 196, 196)" stroke-width="0" fill="rgb(196, 196, 196)" fill-opacity="0.67"></path></g><g><text text-anchor="start" transform="translate(239.743271845281,11.097909934744605)translate(100,0)rotate(2.650375939849603)rotate(0)" dy=".35em" class="elm-chord-diagram-label">Y node</text><g transform="translate(100,0)"><path d="M178.65776497468167,89.89662404257129 A200,200 0 0 0 186.19871115219598,-73.00712270224793 L204.8185822674156,-80.30783497247272 A220,220 0 0 1 196.52354147214984,98.88628644682842 Z" stroke="rgb(196, 196, 196)" stroke-width="0" fill="rgb(0, 161, 222)" fill-opacity="1"></path></g></g><g><text text-anchor="start" transform="translate(171.31250412934983,-168.08338980676075)translate(100,0)rotate(-44.45488721804512)rotate(0)" dy=".35em" class="elm-chord-diagram-label">Z node</text><g transform="translate(100,0)"><path d="M179.1271788363502,-88.95759552803918 A200,200 0 0 0 92.34972264700679,-177.40216663564433 L101.58469491170746,-195.14238329920877 A220,220 0 0 1 197.0398967199852,-97.8533550808431 Z" stroke="rgb(196, 196, 196)" stroke-width="0" fill="rgb(0, 161, 222)" fill-opacity="1"></path></g><path d="M227.2966333804204,-154.25811852220562 A200,200 0 0 1 242.76042010779153,-140.06949150563398 Q0,0 -299.655243294854,11.738135493879303 A200,200 0 0 1 -287.09437187161916,-70.68023778938704 Q0,0 227.2966333804204,-154.25811852220562 Z" stroke="rgb(196, 196, 196)" stroke-width="0" fill="rgb(196, 196, 196)" fill-opacity="0.67"></path><path d="M192.3497226470068,-177.40216663564433 A200,200 0 0 1 227.2966333804204,-154.25811852220562 Q0,0 -244.49547689605933,-138.27891074412028 A200,200 0 0 1 -194.55409759836573,-176.2371204580883 Q0,0 192.3497226470068,-177.40216663564433 Z" stroke="rgb(196, 196, 196)" stroke-width="0" fill="rgb(196, 196, 196)" fill-opacity="0.67"></path></g><g><text text-anchor="start" transform="translate(-1.4959868140880506,-239.99533750356917)translate(100,0)rotate(-90.35714285714286)rotate(0)" dy=".35em" class="elm-chord-diagram-label"></text><g transform="translate(100,0)"><path d="M76.53668647301797,-184.77590650225736 A200,200 0 0 0 -78.83421357710786,-183.80741761332416 L-86.71763493481865,-202.18815937465658 A220,220 0 0 1 84.19035512031977,-203.25349715248308 Z" stroke="rgb(196, 196, 196)" stroke-width="0" fill="rgb(0, 161, 222)" fill-opacity="0"></path></g></g></g></svg>
